<?xml version="1.0" encoding="UTF-8" standalone="no"?>
<!DOCTYPE svg PUBLIC "-//W3C//DTD SVG 1.1//EN" "http://www.w3.org/Graphics/SVG/1.1/DTD/svg11.dtd">
<svg width="100%" height="100%" viewBox="0 0 555 469" version="1.1" xmlns="http://www.w3.org/2000/svg" xmlns:xlink="http://www.w3.org/1999/xlink" xml:space="preserve" xmlns:serif="http://www.serif.com/" style="fill-rule:evenodd;clip-rule:evenodd;stroke-linejoin:round;stroke-miterlimit:2;">
    <g>
        <path d="M553.334,271.421C552.992,270.961 551.972,270.385 552.057,269.22C552.337,265.336 550.375,266.53 548.92,267.499C543.9,270.841 537.341,272.043 535.749,280.401C535.395,282.259 533.641,282.932 532.264,283.749C519.229,291.484 504.864,282.278 501.35,263.496C499.527,253.76 497.116,244.241 493.239,235.367C491.145,230.577 485.014,224.213 482.019,219.207C481.519,218.377 481.234,217.441 481.205,216.473C481.054,211.313 478.862,199.464 464.837,191.3C464.734,191.232 464.628,191.167 464.529,191.099C447.335,178.598 410.339,165.702 390.485,159.69C382.911,157.597 380.882,162.471 380.697,165.548C380.661,166.137 380.74,166.715 380.902,167.283C381.291,168.667 382.117,171.497 382.128,171.583C386.828,189.526 392.875,214.38 389.405,213.414C385.696,212.382 376.514,160.476 354.827,145.542C354.688,145.43 354.554,145.323 354.412,145.212C340.266,132.124 310.883,125.977 300.976,123.901C299.685,123.631 298.52,122.919 297.73,121.866C291.904,114.116 282.796,111.751 268.645,109.445C262.771,108.489 257.737,107.765 253.431,107.241C249.892,106.81 247.627,103.267 248.724,99.871L248.742,99.812C249.196,98.397 249.206,95.54 248.285,95.173C247.227,94.751 243.916,96.227 241.112,96.538C239.252,96.745 237.099,95.543 236.994,95.481C236.309,95.082 237.966,96.495 237.245,95.813C229.08,88.072 249.45,80.929 244.962,80.618C243.385,80.509 241.86,80.47 240.34,80.439C234.149,80.309 228.446,80.747 223.623,81.432C222.351,81.611 221.547,80.416 221.656,79.339C221.711,78.822 221.956,78.331 222.498,78.037C249.29,63.484 259.354,46.852 259.354,46.852C259.354,46.852 267.508,33.61 248.583,24.853C244.972,23.183 240.38,21.668 234.538,20.429C218.164,16.958 203.459,11.577 192.116,6.636C188.123,4.897 184.542,3.213 181.469,1.69C181.35,1.631 180.593,1.256 179.972,1.075C178.201,0.401 176.649,0.935 175.738,3.148C174.233,6.803 179.277,8.679 181.919,10.727C193.162,19.441 205.918,25.013 217.553,32.56C224.895,37.322 225.103,39.428 218.378,44.051C208.615,50.764 197.571,54.954 186.457,59.134C185.856,59.359 185.279,59.457 184.711,59.472C178.85,55.598 172.958,54.83 167.537,55.835C157.794,56.232 148.674,61.675 143.71,70.822C142.676,72.727 140.593,73.83 138.432,73.658C138.032,73.627 137.632,73.604 137.23,73.618C136.495,73.487 135.678,73.477 135.072,73.524C111.101,75.375 106.325,85.214 105.391,89.425C105.117,90.658 104.333,91.704 103.2,92.181C51.629,113.932 15.309,97.63 3.142,90.468C3.058,90.417 2.959,90.362 2.874,90.313C1.312,89.383 -0.525,90.864 0.139,92.551C11.596,121.709 70.707,123.98 87.213,124.028C87.916,124.031 88.569,124.029 89.113,124.025C90.35,124.016 91.348,125.281 90.939,126.464C86.704,138.636 81.643,146.603 78.451,150.987C76.869,153.158 75.647,155.555 74.83,158.113L74.49,159.172C73.057,163.662 73.112,168.495 74.652,172.951C75.026,174.036 75.051,175.213 74.746,176.321C74.574,176.948 74.477,177.393 74.433,177.833C74.433,177.833 74.294,178.966 74.505,180.258C77.592,199.138 87.886,203.199 87.886,203.199C87.886,203.199 89.62,204.257 96.395,203.933C112.496,203.168 139.554,199.321 146.273,198.864C146.993,198.815 147.701,198.886 148.398,199.068L148.833,199.181C149.33,199.309 149.802,199.485 150.254,199.719C173.522,211.781 208.197,249.381 220.618,271.12C221.321,272.436 222.038,273.736 222.773,275.021C228.61,286.13 234.754,294.441 244.723,301.811C245.836,302.631 248.995,304.983 254.116,307.899C260.54,311.557 265.751,313.682 269.951,315.376C281.242,319.928 290.567,322.288 297.392,324.017C300.317,324.758 302.237,325.188 303.46,325.445C308.717,326.553 313.488,327.209 319.466,327.993C341.982,330.944 352.418,329.763 356.531,336.927C356.809,337.269 357.609,340.006 357.867,340.962C357.899,341.072 357.934,341.177 357.966,341.286C363.494,357.418 366.994,359.307 369.5,366.709C370.677,370.187 372.514,372.127 375.681,373.071C380.658,374.554 385.096,377.313 387.118,382.717C391.782,395.161 400.76,404.782 412.384,408.017C425.204,411.589 431.075,410.459 438.775,399.786C441.652,395.793 441.82,392.078 439.475,387.921C434.886,379.793 428.061,375.9 419.693,374.873C415.69,374.381 411.876,372.358 411.333,368.25C410.424,361.405 406.873,357.392 402.762,353.168C398.706,348.998 399.679,343.148 404.234,340.459C405.43,339.756 419.118,328.9 424.678,326.108C426.658,325.086 438.469,320.953 438.846,312.662C437.138,292.854 440.358,278.728 441.855,278.859C442.718,278.935 441.169,285.44 443.826,297.801C443.958,298.414 444.135,299.009 444.34,299.593L444.34,299.608C446.789,313.862 463.754,336.247 472.114,345.752C472.531,346.228 472.851,346.766 473.074,347.358C474.763,351.778 476.977,355.849 479.739,359.693C480.842,361.23 482.042,364.003 482.354,365.867C485.042,381.798 492.628,395.821 494.165,412.032C494.748,418.196 496.136,425.695 495.308,428.465C495.119,429.095 494.973,429.734 495.036,430.388C495.428,434.752 496.822,444.469 498.487,445.309C500.256,446.198 508.559,447.881 512.315,443.692C512.616,443.358 512.77,442.883 512.82,442.416C513.552,435.432 516.387,438.452 517.83,440.345C518.273,440.925 518.981,441.121 519.641,440.871C523.115,439.565 524.687,438.152 526.798,435.654C527.055,435.352 527.241,434.961 527.318,434.552C528.444,428.578 528.715,422.698 525.932,417.154C523.438,412.192 520.43,407.756 517.167,403.492C509.35,393.264 505.002,381.702 508.084,367.219C509.427,360.913 508.11,355.113 504.616,350.283C502.19,346.931 501.902,343.814 502.782,339.295C505.442,325.593 506.324,311.677 504.884,297.736C504.662,295.596 503.479,293.219 505.362,291.53C507.17,289.913 509.064,291.436 510.759,292.265C519.181,296.385 527.258,295.166 535.098,290.177C536.915,289.022 538.643,287.857 540.829,287.857C549.852,287.864 554.071,281.931 554.694,278.023C554.931,276.519 554.754,273.341 553.334,271.421ZM387.948,409.599C392.436,415.016 398.467,419.009 402.98,424.596C408.986,432.034 418.593,453.755 418.661,455.75C418.653,460.706 414.67,460.43 410.764,462.677C408.901,463.363 407.809,465.311 405.999,462.28C405.102,461.624 404.019,461.334 402.772,461.873C401.655,462.357 401.753,464.062 401.887,465.747C401.975,466.81 401.327,467.829 400.39,468.121C397.142,469.134 393.733,469.379 390.059,468.284C387.171,467.424 385.096,467.327 384.239,462.803C384.208,462.679 384.168,462.539 384.131,462.413C378.937,448.432 389.593,456.543 369.048,419.956C368.8,419.334 368.546,418.706 368.297,418.084C366.574,411.663 362.937,405.885 357.114,402.362C353.607,400.242 350.788,397.029 349.137,392.978C345.459,383.957 339.056,378.325 330.784,375.023C325.37,372.86 319.846,370.936 314.432,368.664C302.138,363.507 287.584,354.173 276.95,338.061C276.493,337.367 275.939,336.676 275.525,335.857C274.635,334.105 266.958,324.881 268.715,325.51C284.845,332.248 322.221,338.837 343.559,341.16C346.736,341.506 349.619,343.481 350.781,346.461C350.947,346.888 352.55,349.606 352.847,350.072C359.364,360.3 359.746,361.896 362.406,365.54C366.646,371.347 372.445,376.711 373.437,384.025C374.981,395.444 381.919,402.318 387.948,409.599Z" style="fill:rgb(243,109,33);fill-rule:nonzero;"/>
    </g>
</svg>
